<?xml version="1.0" encoding="UTF-8"?>
<svg xmlns="http://www.w3.org/2000/svg" width="192" height="40" viewBox="0 0 192 40" fill="none">
  <g clip-path="url(#clip0_17_691)">
    <path d="M28.1699 39.8296H17.9768L9.78532 27.6696H9.63705V39.8296H1.33435V1.39795H9.63705V24.7797H9.78532L17.7544 14.4962H27.7622L18.1251 25.9431L28.1699 39.8296Z" fill="white"></path>
    <path d="M38.1406 6.42715C38.1406 7.06518 38.0294 7.66567 37.7699 8.22864C37.5105 8.7916 37.1769 9.2795 36.7691 9.69234C36.3614 10.1052 35.8425 10.4054 35.2495 10.6681C34.6564 10.8933 34.0634 11.0059 33.4332 11.0059C32.0989 11.0059 30.9869 10.5555 30.0603 9.65481C29.1707 8.75407 28.6888 7.66567 28.6888 6.42715C28.6888 5.82666 28.8 5.22617 29.0224 4.6632C29.2448 4.10024 29.5784 3.61234 30.0232 3.1995C30.468 2.78666 30.9498 2.44888 31.5429 2.2237C32.0989 1.96098 32.729 1.84839 33.3962 1.84839C34.0263 1.84839 34.6564 1.96098 35.2124 2.18617C35.8054 2.41135 36.2873 2.74913 36.7321 3.16197C37.1398 3.57481 37.4734 4.06271 37.7329 4.62567C38.0294 5.18864 38.1406 5.78913 38.1406 6.42715ZM29.319 39.8296V14.4963H37.5475V39.8296H29.319Z" fill="white"></path>
    <path d="M51.0764 20.7261V30.4091C51.0764 31.6101 51.2988 32.5108 51.7436 33.0738C52.1884 33.6367 53.0038 33.9745 54.1899 33.9745C54.5976 33.9745 55.0054 33.937 55.4872 33.8619C55.932 33.7869 56.3027 33.6743 56.5992 33.5617L56.7104 39.6792C56.1544 39.8669 55.4131 40.0545 54.5606 40.2046C53.7081 40.3548 52.8185 40.4298 51.966 40.4298C50.298 40.4298 48.8895 40.2046 47.7405 39.7918C46.5915 39.379 45.7019 38.7409 44.9976 37.9528C44.2934 37.1646 43.8115 36.1888 43.515 35.1004C43.2185 34.012 43.0702 32.7735 43.0702 31.4224V20.7261H39.0671V14.496H42.9961V7.85303H51.0764V14.496H56.9698V20.6886H51.0764V20.7261Z" fill="white"></path>
    <path d="M75.0578 21.3644C74.6871 21.2518 74.3165 21.1768 73.9829 21.1768C73.6493 21.1393 73.2786 21.1393 72.945 21.1393C71.8331 21.1393 70.9064 21.3269 70.1651 21.7397C69.4238 22.1526 68.7937 22.6405 68.3489 23.2035C67.9041 23.7664 67.5705 24.4044 67.3852 25.08C67.1999 25.7555 67.0887 26.356 67.0887 26.8439V39.8296H58.8601V14.5338H66.7922V18.2118H66.9033C67.5335 16.8983 68.4601 15.8474 69.6091 15.0217C70.7952 14.196 72.1296 13.7832 73.6864 13.7832C74.02 13.7832 74.3535 13.7832 74.6501 13.8207C74.9837 13.8583 75.2431 13.8958 75.4284 13.9709L75.0578 21.3644Z" fill="white"></path>
    <path d="M102.375 27.0691C102.375 29.1333 102.005 31.0098 101.263 32.6987C100.522 34.3876 99.5211 35.8138 98.2609 36.9772C97.0007 38.1407 95.5181 39.0414 93.8501 39.6794C92.1821 40.3175 90.403 40.6552 88.4756 40.6552C86.5852 40.6552 84.8061 40.3175 83.1381 39.6794C81.4331 39.0414 79.9876 38.1407 78.7273 36.9772C77.4671 35.8138 76.4663 34.3876 75.725 32.6987C74.9837 31.0098 74.613 29.1333 74.613 27.0691C74.613 25.0049 74.9837 23.1283 75.725 21.477C76.4663 19.8256 77.4671 18.3994 78.7273 17.2735C79.9876 16.1101 81.4702 15.2468 83.1381 14.6463C84.8432 14.0459 86.6223 13.7456 88.4756 13.7456C90.3659 13.7456 92.1821 14.0459 93.8501 14.6463C95.5181 15.2468 97.0007 16.1476 98.2609 17.2735C99.5211 18.437 100.522 19.8256 101.263 21.477C102.005 23.1283 102.375 25.0049 102.375 27.0691ZM94.4432 27.0691C94.4432 26.2434 94.2949 25.4552 94.0354 24.6671C93.776 23.8789 93.3682 23.2034 92.8864 22.6029C92.3675 22.0024 91.7744 21.5145 91.0331 21.1392C90.2918 20.7639 89.4393 20.5762 88.4756 20.5762C87.5119 20.5762 86.6594 20.7639 85.9181 21.1392C85.1767 21.5145 84.5837 22.0024 84.1018 22.6029C83.62 23.2034 83.2493 23.8789 82.9899 24.6671C82.7304 25.4552 82.6192 26.2434 82.6192 27.0691C82.6192 27.8947 82.7304 28.6829 82.9899 29.471C83.2493 30.2592 83.62 30.9723 84.1018 31.5728C84.6208 32.2108 85.2138 32.6987 85.9551 33.074C86.6964 33.4493 87.5489 33.637 88.5127 33.637C89.4764 33.637 90.3289 33.4493 91.0702 33.074C91.8115 32.6987 92.4416 32.2108 92.9235 31.5728C93.4424 30.9347 93.813 30.2592 94.0354 29.471C94.332 28.6829 94.4432 27.8947 94.4432 27.0691Z" fill="white"></path>
    <path d="M122.131 39.8294V36.3391H122.02C121.724 36.902 121.316 37.465 120.834 37.9529C120.352 38.4783 119.796 38.8912 119.129 39.2665C118.462 39.6418 117.758 39.942 116.979 40.1672C116.201 40.3924 115.348 40.505 114.496 40.505C112.828 40.505 111.419 40.2047 110.27 39.6042C109.121 39.0037 108.195 38.2156 107.453 37.2398C106.749 36.264 106.23 35.1756 105.897 33.9371C105.563 32.6986 105.415 31.4225 105.415 30.1465V14.4961H113.717V28.2324C113.717 28.9455 113.754 29.621 113.866 30.2591C113.977 30.8971 114.162 31.4976 114.459 31.9855C114.755 32.5109 115.126 32.8862 115.571 33.1865C116.053 33.4867 116.646 33.6368 117.424 33.6368C118.869 33.6368 119.944 33.1114 120.723 32.023C121.464 30.9346 121.835 29.6586 121.835 28.1949V14.4961H130.063V39.8294H122.131Z" fill="white"></path>
    <path d="M150.931 39.8296V26.0183C150.931 25.3052 150.857 24.6296 150.746 23.9916C150.635 23.3536 150.449 22.7906 150.153 22.3027C149.893 21.8148 149.523 21.4395 149.041 21.1393C148.559 20.839 147.929 20.6889 147.225 20.6889C146.483 20.6889 145.853 20.839 145.297 21.1393C144.741 21.4395 144.296 21.8148 143.926 22.3402C143.555 22.8657 143.296 23.4286 143.11 24.1042C142.925 24.7797 142.851 25.4553 142.851 26.1684V39.9047H134.548V14.4963H142.517V17.9867H142.629C142.925 17.4612 143.333 16.8983 143.815 16.3728C144.296 15.8474 144.852 15.397 145.52 15.0217C146.187 14.6464 146.891 14.3462 147.669 14.121C148.448 13.8958 149.263 13.7832 150.116 13.7832C151.784 13.7832 153.229 14.0834 154.378 14.6839C155.564 15.2844 156.491 16.0726 157.232 17.0484C157.937 18.0242 158.456 19.1126 158.789 20.3886C159.123 21.6272 159.271 22.9032 159.271 24.1417V39.7921H150.931V39.8296Z" fill="white"></path>
    <path d="M182.437 39.8296V36.5268H182.326C181.51 37.8029 180.361 38.8162 178.879 39.4918C177.396 40.2049 175.802 40.5426 174.134 40.5426C172.244 40.5426 170.576 40.1673 169.131 39.4167C167.648 38.6661 166.425 37.6903 165.387 36.4518C164.349 35.2133 163.571 33.7871 163.052 32.1733C162.533 30.5594 162.236 28.833 162.236 27.1066C162.236 25.3802 162.496 23.6538 163.052 22.0399C163.608 20.4261 164.386 18.9999 165.424 17.7989C166.462 16.5604 167.685 15.6221 169.131 14.9091C170.576 14.196 172.207 13.8582 174.023 13.8582C175.876 13.8582 177.433 14.196 178.693 14.9091C179.954 15.6221 180.954 16.4103 181.659 17.236H181.77V1.39795H189.998V39.8296H182.437ZM182.141 27.1066C182.141 26.2809 181.992 25.4928 181.696 24.7046C181.399 23.9165 180.992 23.2409 180.473 22.6029C179.954 22.0024 179.324 21.5145 178.582 21.1392C177.841 20.7639 177.026 20.5762 176.062 20.5762C175.098 20.5762 174.246 20.7639 173.504 21.1392C172.763 21.5145 172.133 22.0024 171.651 22.6029C171.132 23.2034 170.761 23.8789 170.539 24.6671C170.28 25.4552 170.168 26.2434 170.168 27.0691C170.168 27.8947 170.28 28.6829 170.539 29.471C170.798 30.2592 171.169 30.9723 171.651 31.5728C172.17 32.1733 172.763 32.6612 173.504 33.0365C174.246 33.4118 175.098 33.5994 176.062 33.5994C176.988 33.5994 177.841 33.4118 178.582 33.0365C179.324 32.6612 179.954 32.1733 180.473 31.5728C180.992 30.9723 181.399 30.2592 181.696 29.471C181.992 28.7204 182.141 27.9323 182.141 27.1066Z" fill="white"></path>
    <path d="M33.4332 11.3812C36.033 11.3812 38.1405 9.24723 38.1405 6.61481C38.1405 3.98239 36.033 1.84839 33.4332 1.84839C30.8334 1.84839 28.7258 3.98239 28.7258 6.61481C28.7258 9.24723 30.8334 11.3812 33.4332 11.3812Z" fill="#2B2B2B"></path>
  </g>
  <defs>
    <clipPath id="clip0_17_691">
      <rect width="192" height="40" fill="white"></rect>
    </clipPath>
  </defs>
</svg>
