<?xml version="1.0" encoding="UTF-8"?>
<svg xmlns="http://www.w3.org/2000/svg" width="179" height="40" viewBox="0 0 179 40" fill="none">
  <path d="M25.3783 39.1581H15.7388L7.99207 26.7682H7.85186V39.1581H0V0H7.85186V23.8237H7.99207L15.5285 13.3459H24.9928L15.879 25.0092L25.3783 39.1581Z" fill="#BA4543"></path>
  <path d="M34.8081 5.12552C34.8081 5.77561 34.703 6.38745 34.4576 6.96106C34.2122 7.53466 33.8968 8.03178 33.5112 8.45243C33.1256 8.87307 32.6348 9.17899 32.074 9.44667C31.5132 9.67612 30.9523 9.79084 30.3564 9.79084C29.0945 9.79084 28.0429 9.33195 27.1666 8.41419C26.3253 7.49642 25.8696 6.38745 25.8696 5.12552C25.8696 4.51368 25.9748 3.90183 26.1851 3.32823C26.3954 2.75462 26.7109 2.2575 27.1315 1.83686C27.5522 1.41621 28.0079 1.07205 28.5687 0.842608C29.0945 0.574926 29.6904 0.460205 30.3214 0.460205C30.9173 0.460205 31.5132 0.574926 32.0389 0.804368C32.5998 1.03381 33.0555 1.37797 33.4761 1.79862C33.8617 2.21926 34.1772 2.71638 34.4225 3.28999C34.703 3.86359 34.8081 4.47544 34.8081 5.12552ZM26.4655 39.1594V13.3472H34.2473V39.1594H26.4655Z" fill="#BA4543"></path>
  <path d="M47.0412 19.6938V29.5598C47.0412 30.7835 47.2515 31.7013 47.6722 32.2749C48.0928 32.8485 48.864 33.1926 49.9857 33.1926C50.3713 33.1926 50.7568 33.1544 51.2125 33.0779C51.6332 33.0014 51.9837 32.8867 52.2641 32.772L52.3693 39.0052C51.8435 39.1964 51.1424 39.3876 50.3362 39.5405C49.53 39.6935 48.6887 39.77 47.8825 39.77C46.3051 39.77 44.9731 39.5405 43.8865 39.1199C42.7998 38.6992 41.9586 38.0492 41.2925 37.2461C40.6265 36.4431 40.1709 35.4488 39.8904 34.3399C39.61 33.2309 39.4698 31.969 39.4698 30.5923V19.6938H35.6841V13.3459H39.3997V6.57739H47.0412V13.3459H52.6146V19.6556H47.0412V19.6938Z" fill="#BA4543"></path>
  <path d="M69.7206 20.3454C69.3701 20.2307 69.0195 20.1542 68.7041 20.1542C68.3886 20.116 68.0381 20.116 67.7226 20.116C66.671 20.116 65.7947 20.3072 65.0936 20.7278C64.3925 21.1484 63.7966 21.6456 63.376 22.2192C62.9554 22.7928 62.6399 23.4429 62.4646 24.1312C62.2894 24.8195 62.1842 25.4314 62.1842 25.9285V39.1596H54.4025V13.3857H61.9038V17.1332H62.0089C62.6048 15.7948 63.4812 14.7241 64.5678 13.8828C65.6895 13.0415 66.9514 12.6208 68.4236 12.6208C68.7391 12.6208 69.0546 12.6208 69.335 12.6591C69.6505 12.6973 69.8959 12.7356 70.0711 12.8121L69.7206 20.3454Z" fill="#BA4543"></path>
  <path d="M95.5546 26.1571C95.5546 28.2603 95.2041 30.1723 94.503 31.8931C93.8019 33.614 92.8555 35.0671 91.6637 36.2525C90.4719 37.438 89.0698 38.3558 87.4924 39.0058C85.915 39.6559 84.2325 40.0001 82.4097 40.0001C80.622 40.0001 78.9395 39.6559 77.3621 39.0058C75.7497 38.3558 74.3826 37.438 73.1908 36.2525C71.999 35.0671 71.0526 33.614 70.3515 31.8931C69.6505 30.1723 69.2999 28.2603 69.2999 26.1571C69.2999 24.0539 69.6505 22.1419 70.3515 20.4593C71.0526 18.7767 71.999 17.3236 73.1908 16.1764C74.3826 14.9909 75.7847 14.1114 77.3621 13.4996C78.9745 12.8877 80.6571 12.5818 82.4097 12.5818C84.1974 12.5818 85.915 12.8877 87.4924 13.4996C89.0698 14.1114 90.4719 15.0292 91.6637 16.1764C92.8555 17.3618 93.8019 18.7767 94.503 20.4593C95.2041 22.1419 95.5546 24.0539 95.5546 26.1571ZM88.0533 26.1571C88.0533 25.3158 87.913 24.5128 87.6677 23.7097C87.4223 22.9067 87.0367 22.2183 86.581 21.6065C86.0903 20.9947 85.5294 20.4975 84.8284 20.1151C84.1273 19.7327 83.3211 19.5415 82.4097 19.5415C81.4984 19.5415 80.6921 19.7327 79.9911 20.1151C79.29 20.4975 78.7292 20.9947 78.2735 21.6065C77.8178 22.2183 77.4673 22.9067 77.2219 23.7097C76.9765 24.5128 76.8714 25.3158 76.8714 26.1571C76.8714 26.9984 76.9765 27.8014 77.2219 28.6045C77.4673 29.4075 77.8178 30.1341 78.2735 30.7459C78.7642 31.396 79.3251 31.8931 80.0261 32.2755C80.7272 32.6579 81.5334 32.8492 82.4448 32.8492C83.3562 32.8492 84.1624 32.6579 84.8634 32.2755C85.5645 31.8931 86.1604 31.396 86.6161 30.7459C87.1068 30.0958 87.4574 29.4075 87.6677 28.6045C87.9481 27.8014 88.0533 26.9984 88.0533 26.1571Z" fill="#BA4543"></path>
  <path d="M114.238 39.1572V35.6008H114.133C113.852 36.1744 113.467 36.748 113.011 37.2452C112.556 37.7805 112.03 38.2012 111.399 38.5836C110.768 38.966 110.102 39.2719 109.366 39.5013C108.63 39.7308 107.823 39.8455 107.017 39.8455C105.44 39.8455 104.108 39.5396 103.021 38.9277C101.934 38.3159 101.058 37.5129 100.357 36.5186C99.6911 35.5244 99.2004 34.4154 98.8849 33.1535C98.5694 31.8915 98.4292 30.5914 98.4292 29.2912V13.345H106.281V27.3409C106.281 28.0675 106.316 28.7558 106.421 29.4059C106.526 30.056 106.702 30.6678 106.982 31.165C107.263 31.7003 107.613 32.0827 108.034 32.3887C108.489 32.6946 109.05 32.8475 109.786 32.8475C111.153 32.8475 112.17 32.3122 112.906 31.2032C113.607 30.0942 113.958 28.7941 113.958 27.3027V13.345H121.739V39.1572H114.238Z" fill="#BA4543"></path>
  <path d="M141.474 39.1596V25.0872C141.474 24.3606 141.404 23.6723 141.299 23.0222C141.194 22.3721 141.018 21.7985 140.738 21.3014C140.493 20.8043 140.142 20.4219 139.686 20.1159C139.231 19.81 138.635 19.6571 137.969 19.6571C137.268 19.6571 136.672 19.81 136.146 20.1159C135.62 20.4219 135.2 20.8043 134.849 21.3396C134.499 21.875 134.253 22.4486 134.078 23.1369C133.903 23.8253 133.833 24.5136 133.833 25.2401V39.2361H125.981V13.3474H133.517V16.9038H133.622C133.903 16.3684 134.288 15.7948 134.744 15.2594C135.2 14.7241 135.725 14.2652 136.356 13.8828C136.987 13.5004 137.653 13.1945 138.389 12.965C139.126 12.7356 139.897 12.6208 140.703 12.6208C142.28 12.6208 143.647 12.9268 144.734 13.5386C145.856 14.1505 146.732 14.9535 147.433 15.9478C148.099 16.942 148.59 18.051 148.905 19.3511C149.221 20.6131 149.361 21.9132 149.361 23.1752V39.1214H141.474V39.1596Z" fill="#BA4543"></path>
  <path d="M171.269 39.1581V35.7929H171.163C170.392 37.0931 169.306 38.1256 167.903 38.8139C166.501 39.5405 164.994 39.8846 163.417 39.8846C161.629 39.8846 160.052 39.5022 158.685 38.7374C157.282 37.9726 156.126 36.9784 155.144 35.7164C154.163 34.4545 153.427 33.0014 152.936 31.357C152.445 29.7127 152.165 27.9537 152.165 26.1946C152.165 24.4356 152.41 22.6765 152.936 21.0322C153.462 19.3878 154.198 17.9347 155.179 16.711C156.161 15.4491 157.317 14.4931 158.685 13.7665C160.052 13.0399 161.594 12.6958 163.312 12.6958C165.064 12.6958 166.536 13.0399 167.728 13.7665C168.92 14.4931 169.866 15.2961 170.532 16.1374H170.638V0H178.419V39.1581H171.269ZM170.988 26.1946C170.988 25.3533 170.848 24.5503 170.567 23.7472C170.287 22.9442 169.901 22.2559 169.411 21.6058C168.92 20.9939 168.324 20.4968 167.623 20.1144C166.922 19.732 166.151 19.5408 165.239 19.5408C164.328 19.5408 163.522 19.732 162.821 20.1144C162.12 20.4968 161.524 20.9939 161.068 21.6058C160.577 22.2176 160.227 22.9059 160.017 23.709C159.771 24.512 159.666 25.3151 159.666 26.1564C159.666 26.9977 159.771 27.8007 160.017 28.6037C160.262 29.4068 160.612 30.1334 161.068 30.7452C161.559 31.357 162.12 31.8542 162.821 32.2366C163.522 32.619 164.328 32.8102 165.239 32.8102C166.116 32.8102 166.922 32.619 167.623 32.2366C168.324 31.8542 168.92 31.357 169.411 30.7452C169.901 30.1334 170.287 29.4068 170.567 28.6037C170.848 27.8389 170.988 27.0359 170.988 26.1946Z" fill="#BA4543"></path>
  <path d="M30.3561 10.1732C32.8148 10.1732 34.8079 7.9989 34.8079 5.31672C34.8079 2.63454 32.8148 0.460205 30.3561 0.460205C27.8975 0.460205 25.9044 2.63454 25.9044 5.31672C25.9044 7.9989 27.8975 10.1732 30.3561 10.1732Z" fill="#333333"></path>
</svg>
